<svg xmlns="http://www.w3.org/2000/svg" viewBox="0 0 429.66 50"><defs><style>.cls-1{fill:#064b92;}.cls-2{fill:#1e2936;}</style></defs><title>logo</title><g id="Layer_2" data-name="Layer 2"><g id="Layer_1-2" data-name="Layer 1"><path class="cls-1" d="M34.63,0,56.84,50H43.44l-4.12-9.88H16.93L13.2,50H0L20.2,0Zm1.06,31.39L27.58,12,20.23,31.39Z"/><path class="cls-1" d="M110.75,0V50H98.29V29.78H73.38V50H60.92V0H73.38V20.08H98.29V0Z"/><path class="cls-1" d="M163.51,0V9.16H145.4V50H132.94V9.16H114.83V0Z"/><path class="cls-2" d="M194.66,25.4H211V46.09A44.65,44.65,0,0,1,193.16,50Q181,50,173.79,42.92a23.42,23.42,0,0,1-7.25-17.45A24.28,24.28,0,0,1,174,7.27Q181.56,0,192.88,0a33.37,33.37,0,0,1,7.83.89,64.12,64.12,0,0,1,9.36,3.27v7.13a34.34,34.34,0,0,0-17.33-5.07,18.39,18.39,0,0,0-13.49,5.45,18.13,18.13,0,0,0-5.49,13.38,18,18,0,0,0,5.49,13.59q5.49,5.28,14.12,5.28a32.92,32.92,0,0,0,10-1.92l.66-.21V31.62h-9.4Z"/><path class="cls-2" d="M218.77,0h7.16V43.49h22.51V50H218.77Z"/><path class="cls-2" d="M276.6,0q11.3,0,18.81,7.15a23.74,23.74,0,0,1,7.51,17.93,23.35,23.35,0,0,1-7.58,17.85Q287.75,50,276.22,50q-11,0-18.36-7.07a23.57,23.57,0,0,1-7.34-17.71,24.09,24.09,0,0,1,7.39-18.07Q265.31,0,276.6,0Zm.28,6.63a18.93,18.93,0,0,0-13.75,5.23,17.84,17.84,0,0,0-5.38,13.36,17.52,17.52,0,0,0,5.4,13.12,20.06,20.06,0,0,0,27.14-.1,17.85,17.85,0,0,0,5.45-13.29,17.44,17.44,0,0,0-5.45-13A18.53,18.53,0,0,0,276.88,6.63Z"/><path class="cls-2" d="M326.72,50H309.79V0h13.1q6.19,0,9.66,1.66a12.36,12.36,0,0,1,5.3,4.58A12.45,12.45,0,0,1,339.67,13q0,7.37-7.62,10.56a15.46,15.46,0,0,1,8.71,4.51,11.75,11.75,0,0,1,3.24,8.3,12.2,12.2,0,0,1-2,6.84,14.32,14.32,0,0,1-5.78,4.9A21.32,21.32,0,0,1,326.72,50ZM323.1,6.37h-6.16v15h4.76q5.73,0,8.14-2.18a7.27,7.27,0,0,0,2.42-5.65Q332.27,6.37,323.1,6.37Zm.54,21.4h-6.69V43.63H324q5.87,0,8-.91a7.57,7.57,0,0,0,3.36-2.85,7.42,7.42,0,0,0,1.27-4.15,7.09,7.09,0,0,0-1.34-4.19,8,8,0,0,0-3.81-2.83A23.87,23.87,0,0,0,323.64,27.77Z"/><path class="cls-2" d="M369.9,0h5L397.2,50h-7.28l-6.63-14.73H362.08L355.86,50h-7.31Zm10.46,28.93-8-18-7.44,18Z"/><path class="cls-2" d="M400,0h7.16V43.49h22.51V50H400Z"/></g></g></svg>